PathFileType	4	(X/Y/Z)	Walk9.trc
DataRate	CameraRate	NumFrames	NumMarkers	Units	OrigDataRate	OrigDataStartFrame	OrigNumFrames
200.000000	200.000000	5	61	mm	200.000000	691	817
Frame#	Times		RCAR		LTH3		LTB1		LBHD		RWRU		LWRU		LFA1		RTH2		LUA1		LElbow		LCAR		LTH2		RPSI		RTH3		C7		LElbowM		RFA1		RBHD		RToe		RTB2		RTB3		LTH1		RTB1		RMT5		RElbow		RASI		RLFC		RTB4		LWRR		RMT1		RTH4		T10		RBack		RLMAL		LPSI		CLAV		RMFC		RMMAL		RCAL		RUA1		LMFC		LACR1		LLFC		STRN		RWRR		RTH1		LTH4		LTB4		RElbowM		LASI		LTB3		LMT5		LFHD		RFHD		RACR1		LCAL		LMMAL		LTB2		LLMAL		LToe		LMT1
			X1	Y1	Z1	X2	Y2	Z2	X3	Y3	Z3	X4	Y4	Z4	X5	Y5	Z5	X6	Y6	Z6	X7	Y7	Z7	X8	Y8	Z8	X9	Y9	Z9	X10	Y10	Z10	X11	Y11	Z11	X12	Y12	Z12	X13	Y13	Z13	X14	Y14	Z14	X15	Y15	Z15	X16	Y16	Z16	X17	Y17	Z17	X18	Y18	Z18	X19	Y19	Z19	X20	Y20	Z20	X21	Y21	Z21	X22	Y22	Z22	X23	Y23	Z23	X24	Y24	Z24	X25	Y25	Z25	X26	Y26	Z26	X27	Y27	Z27	X28	Y28	Z28	X29	Y29	Z29	X30	Y30	Z30	X31	Y31	Z31	X32	Y32	Z32	X33	Y33	Z33	X34	Y34	Z34	X35	Y35	Z35	X36	Y36	Z36	X37	Y37	Z37	X38	Y38	Z38	X39	Y39	Z39	X40	Y40	Z40	X41	Y41	Z41	X42	Y42	Z42	X43	Y43	Z43	X44	Y44	Z44	X45	Y45	Z45	X46	Y46	Z46	X47	Y47	Z47	X48	Y48	Z48	X49	Y49	Z49	X50	Y50	Z50	X51	Y51	Z51	X52	Y52	Z52	X53	Y53	Z53	X54	Y54	Z54	X55	Y55	Z55	X56	Y56	Z56	X57	Y57	Z57	X58	Y58	Z58	X59	Y59	Z59	X60	Y60	Z60	X61	Y61	Z61

691	3.455	792.16	918	322.48	551.03	617.58	-125.73	663.4	405.12	-51.161	451.77	1642	-11.754	724.28	910.33	331.06	357.25	866.16	-208.16	342.45	1001	-222.08	501.78	691.6	194.73	400.57	1301.8	-202.27	345.1	1153.1	-216.58	420.52	816.07	-221.47	590.5	727.93	-114.94	319.36	1029.7	105.41	408.94	615.69	212.13	431.61	1514	61.856	319.97	1151	-142.74	634.69	1010.7	355.37	469.18	1647.5	129.3	453.43	30.166	125.43	334.05	275.81	180.34	331.71	190.81	105.38	502.6	796.72	-144.85	391.2	366.46	128.18	346.26	25.154	177.85	542.05	1135.9	355.27	534.46	1034.6	199.1	369.25	500.33	202.91	362.29	278.11	115.64	433.23	871.27	-172.35	400.15	38.953	100.94	436.77	705.19	226.25	319.81	1293.7	64.847	366.62	1424	201.03	257.63	77.536	139.97	312.38	1022.7	27.788	559.1	1421.4	47.896	379.21	516.7	70.903	297.79	98.552	62.423	202.06	45.232	86.304	532.39	1292.2	311.2	597.91	527.84	17.112	483.01	1468.1	-115.22	571.46	521.87	-112.29	598.19	1247.3	39.167	759.45	949.27	273.09	458.8	798.42	234.56	525.79	706.36	-138.11	678.58	316.35	-51.684	505.37	1108.8	287.17	517.63	1034.7	-87.453	694.22	221.32	-54.72	787.27	53.989	-131.27	633.87	1681.5	9.3187	642.35	1683.4	85.593	521.26	1457.3	210.62	642.52	25.437	-39.177	711.74	112.22	-16.981	641.91	312.16	-118.52	677.8	81.463	-91.981	872.47	100.22	-82.7	833.52	82.586	-58.247
692	3.46	798.36	918.67	321.85	554.46	616.01	-125.49	669.44	405.27	-50.395	456.7	1641.3	-12.239	730.59	910.47	330.26	360.74	865.51	-208.35	346.51	1000.4	-222.32	505.32	691.01	194.78	405.45	1301	-202.71	349.72	1152.5	-216.9	423.79	815.09	-221.41	594.41	726.19	-114.68	324.23	1029	104.73	412.05	615.55	211.94	436.5	1513.2	61.333	324.52	1150.5	-143.07	640.46	1010.5	354.86	474.1	1646.8	128.84	453.46	30.149	125.51	335.35	275.93	180.29	332.58	190.88	105.34	506.84	795.37	-144.74	393.09	366.21	128.14	346.23	25.13	177.81	547.25	1135.3	354.93	539.2	1034.1	198.84	371.79	500.3	202.69	363.66	277.98	115.54	436.69	870.34	-172.38	400.18	38.773	100.93	440.24	704.93	226.05	324.63	1293	64.184	371.42	1423.3	200.5	257.78	78.009	139.94	317.44	1021.9	27.148	564.03	1420.7	47.489	382.17	516.57	70.73	298.15	98.828	62.441	202.13	45.933	86.237	537.35	1291.6	310.77	601.5	526.78	18.142	488.07	1467.3	-115.72	575.86	520.89	-111.69	603.12	1246.6	38.868	765.5	949.81	272.49	462.69	798.03	234.27	529.63	704.91	-137.91	685.97	316.72	-51.091	510.67	1108.1	286.84	522.88	1033.9	-87.697	703.05	221.9	-54.307	799.31	55.857	-130.64	638.79	1680.8	8.8509	647.27	1682.7	85.121	526.04	1456.6	210.16	654.16	25.168	-39.569	721.95	112.91	-16.75	649.77	312.16	-118.15	689.04	81.863	-92.06	883.49	103.15	-81.182	844.62	84.753	-57.193
693	3.465	804.44	919.26	321.25	558.04	614.5	-125.27	675.39	405.35	-49.639	461.63	1640.5	-12.764	736.76	910.56	329.47	364.34	864.83	-208.59	350.66	999.77	-222.6	508.94	690.42	194.86	410.37	1300.3	-203.18	354.42	1151.8	-217.25	427.17	814.09	-221.38	598.41	724.52	-114.46	329.12	1028.3	104.02	415.25	615.4	211.75	441.39	1512.5	60.768	329.13	1150	-143.45	646.13	1010.2	354.34	479.03	1646.1	128.33	453.5	30.136	125.58	336.73	276.04	180.23	333.5	190.96	105.3	511.13	794.03	-144.69	395.07	365.94	128.1	346.21	25.107	177.77	552.4	1134.7	354.56	543.94	1033.5	198.61	374.44	500.26	202.46	365.11	277.85	115.44	440.26	869.37	-172.45	400.23	38.602	100.92	443.78	704.68	225.86	329.47	1292.3	63.493	376.21	1422.6	199.93	257.95	78.508	139.91	322.52	1021.1	26.484	568.97	1420	47.05	385.27	516.41	70.561	298.53	99.125	62.477	202.21	46.682	86.182	542.29	1291	310.32	605.27	525.82	19.084	493.14	1466.5	-116.26	580.4	519.94	-111.13	608.07	1245.9	38.551	771.44	950.26	271.9	466.63	797.64	234	533.56	703.5	-137.77	693.12	317.01	-50.468	515.91	1107.5	286.47	528.16	1033.2	-87.939	711.47	222.38	-53.821	810.6	57.514	-129.89	643.72	1680.1	8.3448	652.2	1682	84.612	530.82	1455.9	209.66	665.07	24.937	-39.794	731.56	113.52	-16.408	657.37	312.12	-117.75	699.62	82.226	-92.007	893.82	105.74	-79.599	855.02	86.667	-56.054
694	3.47	810.4	919.76	320.66	561.82	613.05	-125.06	681.27	405.34	-48.897	466.56	1639.8	-13.33	742.8	910.59	328.71	368.06	864.12	-208.87	354.91	999.09	-222.93	512.63	689.83	194.97	415.34	1299.5	-203.69	359.2	1151.1	-217.64	430.66	813.07	-221.38	602.51	722.96	-114.29	334.05	1027.6	103.29	418.55	615.24	211.58	446.29	1511.8	60.161	333.8	1149.5	-143.87	651.7	1010	353.81	483.95	1645.4	127.79	453.54	30.126	125.65	338.18	276.16	180.18	334.46	191.05	105.28	515.49	792.73	-144.7	397.15	365.65	128.06	346.19	25.085	177.74	557.5	1134.1	354.16	548.68	1033	198.4	377.2	500.19	202.23	366.62	277.72	115.34	443.93	868.39	-172.53	400.28	38.445	100.91	447.39	704.41	225.68	334.33	1291.6	62.776	381	1422	199.31	258.14	79.039	139.9	327.62	1020.3	25.799	573.91	1419.3	46.579	388.52	516.23	70.395	298.92	99.444	62.53	202.29	47.48	86.142	547.2	1290.4	309.84	609.21	524.97	19.931	498.22	1465.7	-116.83	585.08	519.03	-110.63	613.04	1245.2	38.213	777.27	950.63	271.33	470.63	797.25	233.75	537.63	702.13	-137.69	700.02	317.21	-49.819	521.1	1106.8	286.08	533.48	1032.4	-88.182	719.46	222.76	-53.265	821.11	58.91	-129.01	648.64	1679.4	7.8002	657.12	1681.3	84.066	535.6	1455.2	209.13	675.24	24.72	-39.845	740.56	114.02	-15.958	664.71	312.03	-117.31	709.5	82.518	-91.819	903.48	107.96	-77.968	864.71	88.295	-54.837
695	3.475	816.22	920.17	320.08	565.82	611.7	-124.87	687.07	405.24	-48.171	471.49	1639.1	-13.941	748.7	910.57	327.98	371.88	863.38	-209.19	359.26	998.38	-223.29	516.41	689.24	195.1	420.36	1298.6	-204.23	364.05	1150.4	-218.07	434.26	812.02	-221.4	606.74	721.52	-114.18	339.01	1026.9	102.54	421.96	615.06	211.42	451.19	1511.1	59.512	338.52	1148.9	-144.34	657.18	1009.7	353.26	488.87	1644.7	127.19	453.59	30.118	125.71	339.7	276.28	180.14	335.47	191.15	105.26	519.93	791.47	-144.78	399.32	365.33	128.02	346.18	25.062	177.71	562.54	1133.5	353.72	553.44	1032.5	198.21	380.09	500.11	201.99	368.21	277.58	115.24	447.71	867.38	-172.65	400.35	38.309	100.91	451.08	704.13	225.51	339.22	1290.9	62.032	385.79	1421.3	198.65	258.34	79.605	139.89	332.74	1019.4	25.093	578.86	1418.6	46.076	391.92	516.02	70.23	299.34	99.786	62.6	202.39	48.33	86.121	552.09	1289.8	309.33	613.37	524.21	20.684	503.3	1464.9	-117.44	589.92	518.15	-110.16	618.02	1244.5	37.855	782.98	950.93	270.76	474.69	796.86	233.51	541.85	700.83	-137.68	706.67	317.29	-49.147	526.24	1106.1	285.65	538.84	1031.6	-88.425	727.04	223	-52.642	830.84	60.003	-128	653.57	1678.7	7.2174	662.05	1680.6	83.481	540.39	1454.5	208.57	684.63	24.501	-39.722	748.95	114.39	-15.402	671.78	311.86	-116.83	718.69	82.71	-91.496	912.44	109.75	-76.306	873.69	89.606	-53.55
